<svg width="48" height="48" viewBox="0 0 48 48" fill="none" xmlns="http://www.w3.org/2000/svg">
<path d="M27 26L34 18M12 24C11.9997 21.8934 12.554 19.8239 13.6071 17.9994C14.6602 16.1749 16.175 14.6598 17.9993 13.6064C19.8235 12.553 21.893 11.9984 23.9996 11.9983C26.1062 11.9982 28.1756 12.5527 30 13.606M28 30C28 31.0609 27.5786 32.0783 26.8284 32.8284C26.0783 33.5786 25.0609 34 24 34C22.9391 34 21.9217 33.5786 21.1716 32.8284C20.4214 32.0783 20 31.0609 20 30C20 28.9391 20.4214 27.9217 21.1716 27.1716C21.9217 26.4214 22.9391 26 24 26C25.0609 26 26.0783 26.4214 26.8284 27.1716C27.5786 27.9217 28 28.9391 28 30Z" stroke="white" stroke-width="3" stroke-linecap="round" stroke-linejoin="round"/>
<path d="M5 24C5 15.044 5 10.564 7.782 7.782C10.564 5 15.042 5 24 5C32.956 5 37.436 5 40.218 7.782C43 10.564 43 15.042 43 24C43 32.956 43 37.436 40.218 40.218C37.436 43 32.958 43 24 43C15.044 43 10.564 43 7.782 40.218C5 37.436 5 32.958 5 24Z" stroke="white" stroke-width="3" stroke-linecap="round" stroke-linejoin="round"/>
</svg>
