<svg width="48" height="48" viewBox="0 0 48 48" fill="none" xmlns="http://www.w3.org/2000/svg">
<path d="M34.0008 21.61C34.0008 20.918 34.0008 20.572 34.1048 20.264C34.4068 19.368 35.2048 19.022 36.0048 18.658C36.9008 18.248 37.3488 18.044 37.7948 18.008C38.2988 17.968 38.8048 18.076 39.2368 18.318C39.8088 18.638 40.2088 19.25 40.6168 19.746C42.5028 22.038 43.4468 23.184 43.7908 24.446C44.0708 25.466 44.0708 26.534 43.7908 27.552C43.2888 29.396 41.6988 30.94 40.5208 32.372C39.9188 33.102 39.6168 33.468 39.2368 33.682C38.7974 33.9257 38.2955 34.0336 37.7948 33.992C37.3488 33.956 36.9008 33.752 36.0028 33.342C35.2028 32.978 34.4068 32.632 34.1048 31.736C34.0008 31.428 34.0008 31.082 34.0008 30.39V21.61ZM14.0008 21.61C14.0008 20.738 13.9768 19.956 13.2728 19.344C13.0168 19.122 12.6768 18.968 11.9988 18.658C11.1008 18.25 10.6528 18.044 10.2068 18.008C8.87279 17.9 8.15479 18.812 7.38679 19.748C5.49879 22.038 4.55479 23.184 4.20879 24.448C3.9304 25.4646 3.9304 26.5374 4.20879 27.554C4.71279 29.396 6.30479 30.942 7.48079 32.372C8.22279 33.272 8.93279 34.094 10.2068 33.992C10.6528 33.956 11.1008 33.752 11.9988 33.342C12.6788 33.034 13.0168 32.878 13.2728 32.656C13.9768 32.044 14.0008 31.262 14.0008 30.392V21.61Z" stroke="white" stroke-width="3" stroke-linecap="round" stroke-linejoin="round"/>
<path d="M10 18C10 11.372 16.268 6 24 6C31.732 6 38 11.372 38 18M38 34V35.6C38 39.134 34.42 42 30 42H26" stroke="white" stroke-width="3" stroke-linecap="round" stroke-linejoin="round"/>
</svg>
