<svg width="48" height="48" viewBox="0 0 48 48" fill="none" xmlns="http://www.w3.org/2000/svg">
<path d="M40 11.98V23.954M40 11.98C41.0595 11.98 42.0757 11.5596 42.8256 10.8112C43.5755 10.0628 43.9979 9.04745 44 7.98797C44 5.78397 42.21 3.99597 40 3.99597C37.79 3.99597 36 5.78397 36 7.98797M40 11.98C37.79 11.98 36 10.192 36 7.98797M36 7.98797H12M12 7.98797C11.9979 9.04745 11.5755 10.0628 10.8256 10.8112C10.0757 11.5596 9.05948 11.98 8 11.98M12 7.98797C12 5.78397 10.21 3.99597 8 3.99597C5.79 3.99597 4 5.78397 4 7.98797C4 10.192 5.79 11.98 8 11.98M20 39.92H12M12 39.92C11.9979 40.9795 11.5755 41.9948 10.8256 42.7432C10.0757 43.4916 9.05948 43.912 8 43.912C5.79 43.912 4 42.126 4 39.92C4 37.714 5.79 35.928 8 35.928M12 39.92C12 37.716 10.21 35.928 8 35.928M8 35.928V11.98M31.074 38.824L35.998 33.592M35.998 33.592L38.97 30.416C39.334 30.126 40.122 29.636 41.186 30.61C42.146 31.49 43.406 32.86 43.974 33.5M35.998 33.592L39.008 36.866M31.996 40.972C31.9973 41.3686 31.9205 41.7615 31.7699 42.1284C31.6194 42.4953 31.398 42.829 31.1185 43.1104C30.839 43.3917 30.5068 43.6153 30.1409 43.7683C29.775 43.9213 29.3826 44.0007 28.986 44.002C28.5894 44.0007 28.197 43.9213 27.8311 43.7683C27.4652 43.6153 27.133 43.3917 26.8535 43.1104C26.574 42.829 26.3526 42.4953 26.2021 42.1284C26.0515 41.7615 25.9747 41.3686 25.976 40.972C25.9747 40.5754 26.0515 40.1824 26.2021 39.8155C26.3526 39.4486 26.574 39.1149 26.8535 38.8336C27.133 38.5522 27.4652 38.3287 27.8311 38.1757C28.197 38.0227 28.5894 37.9433 28.986 37.942C29.3826 37.9433 29.775 38.0227 30.1409 38.1757C30.5068 38.3287 30.839 38.5522 31.1185 38.8336C31.398 39.1149 31.6194 39.4486 31.7699 39.8155C31.9205 40.1824 31.9973 40.5754 31.996 40.972Z" stroke="white" stroke-width="3" stroke-linecap="round" stroke-linejoin="round"/>
</svg>
