<svg width="48" height="48" viewBox="0 0 48 48" fill="none" xmlns="http://www.w3.org/2000/svg">
<path d="M36 10.8839C36 10.8839 40 8.8779 42.482 10.9099C42.886 11.2359 43.39 11.8839 43.612 12.3579C44 13.1919 44 13.9999 44 15.6199V37.6379C44 39.6499 41.92 41.0319 40 40.5839C38.0322 40.1319 36.019 39.9071 34 39.9139C30.166 39.9139 26.664 40.6859 24 41.9579C21.336 43.2299 17.834 43.9999 14 43.9999C11.868 43.9999 9.84 43.7599 8 43.3319C6.818 43.0539 6.226 42.9159 5.518 42.3439C5.05143 41.9379 4.66773 41.4455 4.388 40.8939C4 40.0599 4 39.2519 4 37.6339V15.6199C4 13.6039 6.08 12.2199 8 12.6719C9.55 13.0339 11.234 13.2599 13 13.3219" stroke="white" stroke-width="3" stroke-linecap="round" stroke-linejoin="round"/>
<path d="M11 29V29.018M37 24.984V25.004M19 11C19.984 12.012 22.6 16 24 16M24 16C25.4 16 28.016 12.012 29 11M24 16V4M29 27C29 28.3261 28.4732 29.5979 27.5355 30.5355C26.5979 31.4732 25.3261 32 24 32C22.6739 32 21.4021 31.4732 20.4645 30.5355C19.5268 29.5979 19 28.3261 19 27C19 25.6739 19.5268 24.4021 20.4645 23.4645C21.4021 22.5268 22.6739 22 24 22C25.3261 22 26.5979 22.5268 27.5355 23.4645C28.4732 24.4021 29 25.6739 29 27Z" stroke="white" stroke-width="3" stroke-linecap="round" stroke-linejoin="round"/>
</svg>
