<svg width="48" height="48" viewBox="0 0 48 48" fill="none" xmlns="http://www.w3.org/2000/svg">
<path d="M13.13 39.12C12.5675 39.6828 11.8044 39.9991 11.0087 39.9993C10.213 39.9994 9.44979 39.6835 8.887 39.121C8.32421 38.5585 8.00793 37.7954 8.00775 36.9997C8.00756 36.204 8.32348 35.4408 8.886 34.878C9.16466 34.5993 9.49549 34.3783 9.85958 34.2275C10.2237 34.0767 10.6139 33.999 11.008 33.999C11.4021 33.999 11.7923 34.0767 12.1564 34.2275C12.5205 34.3783 12.8513 34.5993 13.13 34.878C13.4087 35.1567 13.6297 35.4875 13.7805 35.8516C13.9313 36.2157 14.009 36.6059 14.009 37C14.009 37.3941 13.9313 37.7843 13.7805 38.1484C13.6297 38.5125 13.4087 38.8433 13.13 39.122M12.008 24H12.75C13.2756 23.9998 13.796 24.1033 14.2816 24.3044C14.7672 24.5055 15.2084 24.8003 15.58 25.172L22.836 32.428C23.5862 33.178 24.0078 34.1952 24.008 35.256V36M21.02 30L37.112 16.748C37.7788 16.201 38.2509 15.4532 38.458 14.616L39.988 8.5C40.0056 8.4325 40.0052 8.36156 39.987 8.29424C39.9687 8.22691 39.9331 8.16554 39.8838 8.11621C39.8345 8.06688 39.7731 8.03131 39.7058 8.01303C39.6384 7.99475 39.5675 7.99439 39.5 8.012L33.384 9.542C32.5468 9.7491 31.799 10.2212 31.252 10.888L18 26.98M27.82 5.786C25.72 4.596 24.668 4 24 4C23.332 4 22.282 4.594 20.184 5.784C18.154 6.936 16.028 7.648 13.952 8.086C9.832 8.958 7.772 9.392 6.886 10.466C6 11.54 6 13.226 6 16.594V19.924M24 44C24.6293 44 25.248 43.9173 25.856 43.752C26.836 43.486 27.76 42.912 29.606 41.76C33.73 39.192 35.792 37.91 37.356 36.26C39.2697 34.2468 40.6609 31.7953 41.408 29.12C41.908 27.314 41.988 25.366 42 22M13 35L19 29" stroke="white" stroke-width="3" stroke-linecap="round" stroke-linejoin="round"/>
</svg>
