<svg width="48" height="48" viewBox="0 0 48 48" fill="none" xmlns="http://www.w3.org/2000/svg">
<path d="M24 31V41M11.96 6.57001C8.576 5.92601 6.884 5.60401 5.44 6.84001C4 8.07401 4 10.08 4 14.092V28.51C4 32.178 4 34.012 4.926 35.158C5.85 36.302 7.886 36.69 11.962 37.466C15.592 38.158 18.426 39.258 20.478 40.366C22.498 41.456 23.506 42 24 42C24.494 42 25.504 41.456 27.52 40.366C29.574 39.26 32.408 38.158 36.04 37.466C40.112 36.69 42.15 36.302 43.074 35.158C44 34.012 44 32.178 44 28.51V14.092C44 10.08 44 8.07401 42.56 6.84001C41.116 5.60401 39.424 5.92601 36.04 6.57001" stroke="white" stroke-width="3" stroke-linecap="round" stroke-linejoin="round"/>
<path d="M22.5 22C22.5 21.6022 22.342 21.2206 22.0607 20.9393C21.7794 20.658 21.3978 20.5 21 20.5C20.6022 20.5 20.2206 20.658 19.9393 20.9393C19.658 21.2206 19.5 21.6022 19.5 22H22.5ZM19.5 26C19.5 26.3978 19.658 26.7794 19.9393 27.0607C20.2206 27.342 20.6022 27.5 21 27.5C21.3978 27.5 21.7794 27.342 22.0607 27.0607C22.342 26.7794 22.5 26.3978 22.5 26H19.5ZM28.5 22C28.5 21.6022 28.342 21.2206 28.0607 20.9393C27.7794 20.658 27.3978 20.5 27 20.5C26.6022 20.5 26.2206 20.658 25.9393 20.9393C25.658 21.2206 25.5 21.6022 25.5 22H28.5ZM25.5 26C25.5 26.3978 25.658 26.7794 25.9393 27.0607C26.2206 27.342 26.6022 27.5 27 27.5C27.3978 27.5 27.7794 27.342 28.0607 27.0607C28.342 26.7794 28.5 26.3978 28.5 26H25.5ZM22.5 6C22.5 5.60218 22.342 5.22064 22.0607 4.93934C21.7794 4.65804 21.3978 4.5 21 4.5C20.6022 4.5 20.2206 4.65804 19.9393 4.93934C19.658 5.22064 19.5 5.60218 19.5 6H22.5ZM19.5 10C19.5 10.3978 19.658 10.7794 19.9393 11.0607C20.2206 11.342 20.6022 11.5 21 11.5C21.3978 11.5 21.7794 11.342 22.0607 11.0607C22.342 10.7794 22.5 10.3978 22.5 10H19.5ZM28.5 6C28.5 5.60218 28.342 5.22064 28.0607 4.93934C27.7794 4.65804 27.3978 4.5 27 4.5C26.6022 4.5 26.2206 4.65804 25.9393 4.93934C25.658 5.22064 25.5 5.60218 25.5 6H28.5ZM25.5 10C25.5 10.3978 25.658 10.7794 25.9393 11.0607C26.2206 11.342 26.6022 11.5 27 11.5C27.3978 11.5 27.7794 11.342 28.0607 11.0607C28.342 10.7794 28.5 10.3978 28.5 10H25.5ZM18 14.5C18.3978 14.5 18.7794 14.342 19.0607 14.0607C19.342 13.7794 19.5 13.3978 19.5 13C19.5 12.6022 19.342 12.2206 19.0607 11.9393C18.7794 11.658 18.3978 11.5 18 11.5V14.5ZM14 11.5C13.6022 11.5 13.2206 11.658 12.9393 11.9393C12.658 12.2206 12.5 12.6022 12.5 13C12.5 13.3978 12.658 13.7794 12.9393 14.0607C13.2206 14.342 13.6022 14.5 14 14.5V11.5ZM18 20.5C18.3978 20.5 18.7794 20.342 19.0607 20.0607C19.342 19.7794 19.5 19.3978 19.5 19C19.5 18.6022 19.342 18.2206 19.0607 17.9393C18.7794 17.658 18.3978 17.5 18 17.5V20.5ZM14 17.5C13.6022 17.5 13.2206 17.658 12.9393 17.9393C12.658 18.2206 12.5 18.6022 12.5 19C12.5 19.3978 12.658 19.7794 12.9393 20.0607C13.2206 20.342 13.6022 20.5 14 20.5V17.5ZM34 14.5C34.3978 14.5 34.7794 14.342 35.0607 14.0607C35.342 13.7794 35.5 13.3978 35.5 13C35.5 12.6022 35.342 12.2206 35.0607 11.9393C34.7794 11.658 34.3978 11.5 34 11.5V14.5ZM30 11.5C29.6022 11.5 29.2206 11.658 28.9393 11.9393C28.658 12.2206 28.5 12.6022 28.5 13C28.5 13.3978 28.658 13.7794 28.9393 14.0607C29.2206 14.342 29.6022 14.5 30 14.5V11.5ZM34 20.5C34.3978 20.5 34.7794 20.342 35.0607 20.0607C35.342 19.7794 35.5 19.3978 35.5 19C35.5 18.6022 35.342 18.2206 35.0607 17.9393C34.7794 17.658 34.3978 17.5 34 17.5V20.5ZM30 17.5C29.6022 17.5 29.2206 17.658 28.9393 17.9393C28.658 18.2206 28.5 18.6022 28.5 19C28.5 19.3978 28.658 19.7794 28.9393 20.0607C29.2206 20.342 29.6022 20.5 30 20.5V17.5ZM22 11.5H26V8.5H22V11.5ZM28.5 14V18H31.5V14H28.5ZM26 20.5H22V23.5H26V20.5ZM19.5 18V14H16.5V18H19.5ZM22 20.5C21.014 20.5 20.426 20.496 20.006 20.44C19.8827 20.4274 19.7617 20.3985 19.646 20.354L17.526 22.474C18.144 23.094 18.894 23.318 19.606 23.414C20.274 23.504 21.1 23.5 22 23.5V20.5ZM16.5 18C16.5 18.9 16.496 19.726 16.586 20.394C16.682 21.106 16.906 21.856 17.526 22.474L19.646 20.354L19.644 20.348L19.634 20.328C19.5958 20.2201 19.5709 20.1079 19.56 19.994C19.504 19.574 19.5 18.986 19.5 18H16.5ZM28.5 18C28.5 18.986 28.496 19.574 28.44 19.994C28.4274 20.1173 28.3985 20.2383 28.354 20.354L30.474 22.474C31.094 21.856 31.318 21.106 31.414 20.394C31.504 19.726 31.5 18.9 31.5 18H28.5ZM26 23.5C26.9 23.5 27.726 23.504 28.394 23.414C29.106 23.318 29.856 23.094 30.474 22.474L28.354 20.354L28.348 20.356L28.328 20.366C28.2201 20.4042 28.1079 20.4291 27.994 20.44C27.574 20.496 26.986 20.5 26 20.5V23.5ZM26 11.5C26.986 11.5 27.574 11.504 27.994 11.56C28.1152 11.5725 28.2342 11.6007 28.348 11.644L28.354 11.646L30.474 9.526C29.856 8.906 29.106 8.682 28.394 8.586C27.726 8.496 26.9 8.5 26 8.5V11.5ZM31.5 14C31.5 13.1 31.504 12.274 31.414 11.606C31.318 10.894 31.094 10.144 30.474 9.526L28.354 11.646L28.356 11.652L28.366 11.672C28.384 11.716 28.414 11.812 28.44 12.006C28.496 12.426 28.5 13.014 28.5 14H31.5ZM22 8.5C21.1 8.5 20.274 8.496 19.606 8.586C18.894 8.682 18.144 8.906 17.526 9.526L19.646 11.646L19.652 11.644L19.672 11.634C19.7799 11.5958 19.8921 11.5709 20.006 11.56C20.426 11.504 21.014 11.5 22 11.5V8.5ZM19.5 14C19.5 13.014 19.504 12.426 19.56 12.006C19.5726 11.8827 19.6015 11.7617 19.646 11.646L17.526 9.526C16.906 10.144 16.682 10.894 16.586 11.606C16.496 12.274 16.5 13.1 16.5 14H19.5ZM19.5 22V26H22.5V22H19.5ZM25.5 22V26H28.5V22H25.5ZM19.5 6V10H22.5V6H19.5ZM25.5 6V10H28.5V6H25.5ZM18 11.5H14V14.5H18V11.5ZM18 17.5H14V20.5H18V17.5ZM34 11.5H30V14.5H34V11.5ZM34 17.5H30V20.5H34V17.5Z" fill="white"/>
</svg>
