<svg width="42" height="42" viewBox="0 0 42 42" fill="none" xmlns="http://www.w3.org/2000/svg">
<path d="M24 23.0002L31 15.0002M9 21.0002C8.9997 18.8936 9.55396 16.8241 10.6071 14.9996C11.6602 13.1752 13.175 11.6601 14.9993 10.6067C16.8235 9.55323 18.893 8.99861 20.9996 8.99854C23.1062 8.99846 25.1756 9.55294 27 10.6062M25 27.0002C25 28.0611 24.5786 29.0785 23.8284 29.8287C23.0783 30.5788 22.0609 31.0002 21 31.0002C19.9391 31.0002 18.9217 30.5788 18.1716 29.8287C17.4214 29.0785 17 28.0611 17 27.0002C17 25.9394 17.4214 24.9219 18.1716 24.1718C18.9217 23.4217 19.9391 23.0002 21 23.0002C22.0609 23.0002 23.0783 23.4217 23.8284 24.1718C24.5786 24.9219 25 25.9394 25 27.0002Z" stroke="white" stroke-width="3" stroke-linecap="round" stroke-linejoin="round"/>
<path d="M2 21C2 12.044 2 7.564 4.782 4.782C7.564 2 12.042 2 21 2C29.956 2 34.436 2 37.218 4.782C40 7.564 40 12.042 40 21C40 29.956 40 34.436 37.218 37.218C34.436 40 29.958 40 21 40C12.044 40 7.564 40 4.782 37.218C2 34.436 2 29.958 2 21Z" stroke="white" stroke-width="3" stroke-linecap="round" stroke-linejoin="round"/>
</svg>
