<svg width="48" height="48" viewBox="0 0 48 48" fill="none" xmlns="http://www.w3.org/2000/svg">
<path d="M15.483 28.2022C7.00189 23.7618 7.00189 21.5416 7.00189 20.8015C7.00189 20.0614 7.00189 17.8412 15.483 13.4007M15.483 28.2022C7.00189 32.6427 7 34.1228 7 35.603M15.483 28.2022C23.9641 23.7618 23.9641 21.5416 23.9641 20.8015C23.9641 20.0614 23.9641 17.8412 15.483 13.4007M15.483 13.4007C23.9641 8.9603 23.9641 7.48015 23.9641 6M15.483 13.4007L11.3596 11.0769C7 8.37009 7 7.18597 7 6M28.556 24.5V28.1615M21.9694 30.9756H25.8454M37.1221 30.9756H41M37.124 36.4781H41M21.9694 36.4781H25.8454M28.556 39.3366V43M34.2699 39.3366V43M34.251 24.4982V28.1597M27.7343 39.2386H35.2332C35.7342 39.2386 36.2146 39.0436 36.5689 38.6967C36.9231 38.3497 37.1221 37.8791 37.1221 37.3884V30.0117C37.1221 29.521 36.9231 29.0504 36.5689 28.7034C36.2146 28.3564 35.7342 28.1615 35.2332 28.1615H27.7343C27.2334 28.1615 26.7529 28.3564 26.3987 28.7034C26.0445 29.0504 25.8454 29.521 25.8454 30.0117V37.3902C25.8454 37.8809 26.0445 38.3515 26.3987 38.6985C26.7529 39.0455 27.2334 39.2404 27.7343 39.2404" stroke="white" stroke-width="3" stroke-linecap="round" stroke-linejoin="round"/>
</svg>
