<svg width="48" height="48" viewBox="0 0 48 48" fill="none" xmlns="http://www.w3.org/2000/svg">
<path d="M24 44C35.0457 44 44 35.0457 44 24C44 12.9543 35.0457 4 24 4C12.9543 4 4 12.9543 4 24C4 35.0457 12.9543 44 24 44Z" stroke="white" stroke-width="3" stroke-linecap="round" stroke-linejoin="round"/>
<path d="M24.908 16.8C24.908 16.8 24.736 21.196 25.77 22.23C26.804 23.264 31.2 23.092 31.2 23.092M25.77 22.232L33 15M22.224 25.776C21.188 24.742 16.794 24.914 16.794 24.914M22.224 25.776C23.258 26.812 23.086 31.206 23.086 31.206M22.224 25.776L15 33" stroke="white" stroke-width="3" stroke-linecap="round" stroke-linejoin="round"/>
</svg>
