<svg width="48" height="48" viewBox="0 0 48 48" fill="none" xmlns="http://www.w3.org/2000/svg">
<path d="M21.018 44C19.156 44 18.224 44 17.45 43.846C15.8962 43.5391 14.4684 42.778 13.3476 41.6589C12.2268 40.5399 11.4633 39.1133 11.154 37.56C11 36.788 11 35.86 11 34V23C11 19.228 11 17.344 12.174 16.172C13.348 15 15.236 15 19.014 15H23.022C26.798 15 28.688 15 29.862 16.172C30.672 16.98 30.922 18.128 31 20" stroke="white" stroke-width="3" stroke-linecap="round" stroke-linejoin="round"/>
<path d="M27.25 41V29M31 29V26M31 44V41M27.25 35H34.75M34.75 35C35.992 35 37 36.008 37 37.25V38.75C37 39.992 35.992 41 34.75 41H25M34.75 35C35.992 35 37 33.992 37 32.75V31.25C37 30.008 35.992 29 34.75 29H25M28 15V11C28 8.192 28 6.786 27.326 5.778C27.0341 5.34106 26.6589 4.96591 26.222 4.674C25.214 4 23.808 4 21 4C18.192 4 16.786 4 15.778 4.674C15.3411 4.96591 14.9659 5.34106 14.674 5.778C14 6.786 14 8.192 14 11V15M20 9H22" stroke="white" stroke-width="3" stroke-linecap="round" stroke-linejoin="round"/>
</svg>
