<svg width="48" height="48" viewBox="0 0 48 48" fill="none" xmlns="http://www.w3.org/2000/svg">
<path d="M11 20C11.244 20 11.472 19.886 11.926 19.66L15.576 17.844C17.192 17.038 18 16.636 18 16V8M11 20C10.756 20 10.528 19.886 10.074 19.66L6.424 17.844C4.808 17.038 4 16.636 4 16V8M11 20V12M18 8C18 7.364 17.192 6.96 15.576 6.156L11.926 4.34C11.472 4.114 11.246 4 11 4C10.756 4 10.528 4.114 10.074 4.34L6.424 6.156C4.808 6.962 4 7.364 4 8M18 8C18 8.636 17.192 9.04 15.576 9.844L11.926 11.66C11.472 11.886 11.246 12 11 12M4 8C4 8.636 4.808 9.04 6.424 9.844L10.074 11.66C10.528 11.886 10.754 12 11 12M37 20C37.244 20 37.472 19.886 37.926 19.66L41.576 17.844C43.192 17.038 44 16.636 44 16V8M37 20C36.756 20 36.528 19.886 36.074 19.66L32.424 17.844C30.808 17.038 30 16.636 30 16V8M37 20V12M44 8C44 7.364 43.192 6.96 41.576 6.156L37.926 4.34C37.472 4.114 37.246 4 37 4C36.756 4 36.528 4.114 36.074 4.34L32.424 6.156C30.808 6.962 30 7.364 30 8M44 8C44 8.636 43.192 9.04 41.576 9.844L37.926 11.66C37.472 11.886 37.246 12 37 12M30 8C30 8.636 30.808 9.04 32.424 9.844L36.074 11.66C36.528 11.886 36.754 12 37 12M23 12H25M4 24V31C4 33.808 4 35.214 4.674 36.222C4.96591 36.6589 5.34106 37.0341 5.778 37.326C6.786 38 8.192 38 11 38M44 24V31C44 33.808 44 35.214 43.326 36.222C43.0341 36.6589 42.6589 37.0341 42.222 37.326C41.214 38 39.808 38 37 38M24 44C24.244 44 24.472 43.888 24.926 43.66L28.576 41.844C30.192 41.04 31 40.636 31 40V32M24 44C23.756 44 23.528 43.888 23.074 43.66L19.424 41.844C17.808 41.04 17 40.636 17 40V32M24 44V36M31 32C31 31.364 30.192 30.96 28.576 30.156L24.926 28.34C24.472 28.112 24.246 28 24 28C23.756 28 23.528 28.112 23.074 28.34L19.424 30.156C17.808 30.96 17 31.364 17 32M31 32C31 32.636 30.192 33.04 28.576 33.844L24.926 35.66C24.472 35.888 24.246 36 24 36M17 32C17 32.636 17.808 33.04 19.424 33.844L23.074 35.66C23.528 35.888 23.754 36 24 36" stroke="white" stroke-width="3" stroke-linecap="round" stroke-linejoin="round"/>
</svg>
