<svg width="48" height="48" viewBox="0 0 48 48" fill="none" xmlns="http://www.w3.org/2000/svg">
<path d="M40.5 13.5L36 18H32M40.5 34.5L36 30H32M40.5 24H24M19 38H19.018M39 13.5C39 13.8978 39.158 14.2794 39.4393 14.5607C39.7206 14.842 40.1022 15 40.5 15C40.8978 15 41.2794 14.842 41.5607 14.5607C41.842 14.2794 42 13.8978 42 13.5C42 13.1022 41.842 12.7206 41.5607 12.4393C41.2794 12.158 40.8978 12 40.5 12C40.1022 12 39.7206 12.158 39.4393 12.4393C39.158 12.7206 39 13.1022 39 13.5ZM39 34.5C39 34.1022 39.158 33.7206 39.4393 33.4393C39.7206 33.158 40.1022 33 40.5 33C40.8978 33 41.2794 33.158 41.5607 33.4393C41.842 33.7206 42 34.1022 42 34.5C42 34.8978 41.842 35.2794 41.5607 35.5607C41.2794 35.842 40.8978 36 40.5 36C40.1022 36 39.7206 35.842 39.4393 35.5607C39.158 35.2794 39 34.8978 39 34.5ZM39 24C39 24.3978 39.158 24.7794 39.4393 25.0607C39.7206 25.342 40.1022 25.5 40.5 25.5C40.8978 25.5 41.2794 25.342 41.5607 25.0607C41.842 24.7794 42 24.3978 42 24C42 23.6022 41.842 23.2206 41.5607 22.9393C41.2794 22.658 40.8978 22.5 40.5 22.5C40.1022 22.5 39.7206 22.658 39.4393 22.9393C39.158 23.2206 39 23.6022 39 24Z" stroke="white" stroke-width="3" stroke-linecap="round" stroke-linejoin="round"/>
<path d="M32 12C31.84 9.16 31.396 7.354 30.182 6.05C28.272 4 25.196 4 19.046 4C12.896 4 9.822 4 7.91 6.05C5.998 8.1 6 11.4 6 18V30C6 36.6 6 39.9 7.91 41.95C9.822 44 12.896 44 19.046 44C25.196 44 28.272 44 30.182 41.95C31.396 40.646 31.838 38.838 32 36" stroke="white" stroke-width="3" stroke-linecap="round" stroke-linejoin="round"/>
</svg>
